<svg xmlns="http://www.w3.org/2000/svg" width="1125" height="142" viewBox="0 0 1125 142">
  <defs>
    <style>
      .cls-1 {
        fill: #fff;
        fill-rule: evenodd;
      }

      .cls-2 {
        fill: #f13024;
      }
    </style>
  </defs>
  <path id="anil_adhikari_" data-name="anil adhikari " class="cls-1" d="M106.529,134.676a26.455,26.455,0,0,0,10.293-14.444v17.1h21.085V81.55q0-18.926-11.04-27.808T94.908,44.86q-7.14,0-15.606.415t-14.278.913V68.6Q70,68.27,76.4,68.019t12.368-.5q5.977-.249,9.629-0.249,13.945,0,13.946,13.946V81.55H95.9a68.269,68.269,0,0,0-21.417,3.071q-9.3,3.074-14.444,9.463T54.9,110.437q0,13.945,9.048,21.583t23.824,7.637Q99.224,139.657,106.529,134.676Zm-21.5-16.851a11.45,11.45,0,0,1-3.735-8.882,11.912,11.912,0,0,1,3.735-9.131q3.735-3.486,10.708-3.487h16.6v7.305q-0.5,10.295-5.313,13.945a18.149,18.149,0,0,1-11.289,3.653Q88.765,121.229,85.03,117.825Zm102.019,19.508V84.372q0-7.634,4.565-12.369t12.037-4.731q7.3,0,11.621,4.648a16.877,16.877,0,0,1,4.317,11.954v53.459h26.563V85.368q0-21.082-8.467-31.461T213.446,43.531h-1.162q-25.237,0-30.714,26.065V46.354H160.486v90.979h26.563ZM294.381,33.487a14.075,14.075,0,0,0,3.569-9.878,14.312,14.312,0,0,0-3.569-10.044q-3.573-3.9-11.041-3.9t-11.04,3.9a14.3,14.3,0,0,0-3.57,10.044,14.062,14.062,0,0,0,3.57,9.878q3.568,3.9,11.04,3.9T294.381,33.487Zm5.229,103.846V46.354H260.928v19.59h12.119v71.389H299.61Zm52.462,0V16.138h-37.52v19.59h10.791v101.6h26.729Zm78.362-88.24a66.948,66.948,0,0,0-13.78,5.4l4.483,10.957a95.49,95.49,0,0,1,11.787-4.732,42.254,42.254,0,0,1,13.282-2.075q8.8,0,13.613,4.316t4.815,15.44v5.313l-15.108.5q-21.752.665-32.208,7.886t-10.459,20.5q0,13.614,7.969,20t20.088,6.392q11.289,0,17.681-3.487a41.13,41.13,0,0,0,12.2-10.791h0.664l2.822,12.618h10.625v-60.6q0-15.6-7.8-22.745t-24.073-7.139A61.017,61.017,0,0,0,430.434,49.093Zm34.034,44.742V101.8q0,12.95-7.471,19.176t-18.76,6.225q-7.14,0-11.705-3.486t-4.565-10.957q0-8.468,6.391-13.116t22.994-5.313Zm90.647,41.173a34.474,34.474,0,0,0,10.625-9.629H566.4l2.158,11.954H580.35V11.158H565.74V46.686q0,2.49.415,6.724t0.581,6.392h-1a35.885,35.885,0,0,0-10.708-9.3q-6.561-3.817-16.851-3.818-16.6,0-26.647,11.7T501.49,93.005q0,22.911,9.961,34.449t26.564,11.539Q548.473,138.993,555.115,135.008Zm-32.623-16.934q-5.895-8.8-5.894-24.737,0-15.771,5.894-25.152t17.681-9.38q14.774,0,20.254,8.882t5.479,25.484v2.656q0,15.607-5.728,23.325t-19.839,7.72Q528.386,126.873,522.492,118.074ZM623.183,11.158h-14.61V137.333h14.61V91.345q0-15.6,5.561-23.99t20.5-8.384q19.921,0,19.922,21.416v56.945h14.444V79.392q0-17.1-8.135-24.82t-24.405-7.72a37.056,37.056,0,0,0-16.021,3.486,27.419,27.419,0,0,0-11.7,10.293h-1a88.351,88.351,0,0,0,.83-12.451V11.158Zm89.318,6.06q-2.49,2.241-2.49,7.056,0,4.65,2.49,6.973a8.654,8.654,0,0,0,6.143,2.324,8.539,8.539,0,0,0,5.894-2.324q2.571-2.323,2.573-6.973,0-4.813-2.573-7.056a8.723,8.723,0,0,0-5.894-2.241A8.845,8.845,0,0,0,712.5,17.217Zm-1.328,31.129v88.987h14.61V48.346h-14.61ZM768.45,11.158H754.006V137.333H768.45V104.627l10.127-8.8,30.88,41.505h17.6L788.538,86.365l36.027-38.019h-17.1L779.075,78.4q-1.494,1.662-3.569,4.234t-4.068,5.064q-1.992,2.49-2.988,3.819h-0.664q0.163-3.152.415-7.471t0.249-6.973V11.158Zm91.311,37.936a66.948,66.948,0,0,0-13.78,5.4l4.483,10.957a95.553,95.553,0,0,1,11.787-4.732,42.254,42.254,0,0,1,13.282-2.075q8.8,0,13.613,4.316t4.815,15.44v5.313l-15.108.5q-21.751.665-32.208,7.886t-10.459,20.5q0,13.614,7.969,20t20.088,6.392q11.289,0,17.681-3.487a41.13,41.13,0,0,0,12.2-10.791h0.664l2.822,12.618h10.626v-60.6q0-15.6-7.8-22.745t-24.073-7.139A61.022,61.022,0,0,0,859.761,49.093ZM893.8,93.835V101.8q0,12.95-7.471,19.176t-18.76,6.225q-7.14,0-11.7-3.486t-4.565-10.957q0-8.468,6.392-13.116t22.993-5.313ZM961.2,52a44.78,44.78,0,0,0-11.123,12.618h-0.665l-1.66-16.27H935.8v88.987h14.61V89.851a32.963,32.963,0,0,1,3.569-15.689A26.9,26.9,0,0,1,963.523,63.7a23.7,23.7,0,0,1,12.784-3.736,38.53,38.53,0,0,1,4.9.332q2.572,0.335,4.732.83l1.826-13.448a36.786,36.786,0,0,0-5.064-.747q-2.905-.249-5.395-0.249A25.4,25.4,0,0,0,961.2,52Zm44.491-34.781q-2.49,2.241-2.49,7.056,0,4.65,2.49,6.973a8.657,8.657,0,0,0,6.14,2.324,8.545,8.545,0,0,0,5.9-2.324q2.565-2.323,2.57-6.973,0-4.813-2.57-7.056a8.728,8.728,0,0,0-5.9-2.241A8.848,8.848,0,0,0,1005.69,17.217Zm-1.33,31.129v88.987h14.61V48.346h-14.61Z"/>
  <rect class="cls-2" x="1055" y="119" width="19" height="19"/>
</svg>
